<svg xmlns="http://www.w3.org/2000/svg" xmlns:xlink="http://www.w3.org/1999/xlink" width="900" zoomAndPan="magnify" viewBox="0 0 675 525.000007" height="500" preserveAspectRatio="xMidYMid meet" version="1.0"><defs><clipPath id="303a1f69d1"><path d="M 0.640625 0 L 674.355469 0 L 674.355469 524 L 0.640625 524 Z M 0.640625 0 " clip-rule="nonzero"/></clipPath><clipPath id="f1b0bd20e1"><path d="M 0.640625 166.175781 L 674.355469 166.175781 L 674.355469 506 L 0.640625 506 Z M 0.640625 166.175781 " clip-rule="nonzero"/></clipPath><clipPath id="bd434640bb"><path d="M 0.640625 0 L 674.355469 0 L 674.355469 250.824219 L 0.640625 250.824219 Z M 0.640625 0 " clip-rule="nonzero"/></clipPath></defs><g clip-path="url(#303a1f69d1)"><path fill="#ffffff" d="M 0.640625 0 L 674.359375 0 L 674.359375 531.488281 L 0.640625 531.488281 Z M 0.640625 0 " fill-opacity="1" fill-rule="nonzero"/><path fill="#ffffff" d="M 0.640625 0 L 674.359375 0 L 674.359375 524 L 0.640625 524 Z M 0.640625 0 " fill-opacity="1" fill-rule="nonzero"/><path fill="#ffffff" d="M 0.640625 0 L 674.359375 0 L 674.359375 524 L 0.640625 524 Z M 0.640625 0 " fill-opacity="1" fill-rule="nonzero"/></g><g clip-path="url(#f1b0bd20e1)"><path fill="#4484ac" d="M 678.238281 166.785156 L -4.035156 166.191406 L -1.488281 464.238281 C -1.488281 464.238281 17.84375 462.710938 42.261719 450.488281 C 64.832031 439.191406 156.554688 399.519531 338.359375 482.066406 C 475.214844 544.207031 587.140625 462.203125 678.714844 468.914062 Z M 678.238281 166.785156 " fill-opacity="1" fill-rule="nonzero"/></g><g clip-path="url(#bd434640bb)"><path fill="#4484ac" d="M 678.238281 250.210938 L -4.035156 250.808594 L -1.488281 -47.242188 C -1.488281 -47.242188 17.84375 -45.710938 42.261719 -33.488281 C 64.832031 -22.191406 156.554688 17.480469 338.359375 -65.066406 C 475.214844 -127.207031 587.140625 -45.203125 678.714844 -51.917969 Z M 678.238281 250.210938 " fill-opacity="1" fill-rule="nonzero"/></g></svg>